<?xml version="1.0" standalone="no"?>
<!DOCTYPE svg PUBLIC "-//W3C//DTD SVG 20010904//EN"
 "http://www.w3.org/TR/2001/REC-SVG-20010904/DTD/svg10.dtd">
<svg version="1.0" xmlns="http://www.w3.org/2000/svg"
 width="1059.000000pt" height="760.000000pt" viewBox="0 0 1059.000000 760.000000"
 preserveAspectRatio="xMidYMid meet">

<g transform="translate(0.000000,760.000000) scale(0.100000,-0.100000)"
fill="#000000" stroke="none">
<path d="M4593 7519 c-189 -28 -460 -143 -632 -271 -53 -39 -121 -90 -151
-112 -81 -60 -391 -377 -471 -481 -38 -49 -110 -142 -159 -205 -139 -177 -448
-652 -555 -852 -27 -51 -74 -138 -104 -193 -113 -209 -143 -269 -217 -427 -42
-90 -95 -204 -119 -254 -24 -51 -46 -102 -50 -115 -4 -13 -18 -42 -30 -64 -13
-22 -37 -78 -54 -125 -16 -47 -53 -139 -81 -205 -28 -66 -60 -147 -70 -180
-10 -33 -35 -103 -54 -155 -79 -216 -233 -682 -272 -828 -14 -51 -15 -65 -5
-72 7 -4 68 -11 135 -14 150 -9 333 -23 451 -36 50 -5 127 -10 172 -10 82 0
83 0 89 28 3 15 17 72 31 127 14 55 36 145 48 200 13 55 40 161 60 235 21 74
54 198 75 275 21 77 50 174 64 215 14 41 44 134 67 205 23 72 77 222 119 335
134 354 105 305 233 384 62 37 184 110 272 161 88 51 259 159 380 238 345 227
636 417 680 445 24 15 58 27 83 28 26 2 66 15 98 34 l55 30 18 -43 c39 -91 53
-178 49 -303 -3 -105 -7 -126 -31 -176 -18 -36 -40 -64 -61 -77 -50 -31 -175
-69 -227 -69 -26 0 -61 -8 -79 -17 -29 -15 -31 -20 -26 -48 13 -66 12 -71 -24
-89 l-35 -17 35 5 c44 7 90 24 90 34 0 8 51 32 57 26 7 -7 -35 -814 -43 -825
-2 -2 -29 -9 -61 -16 -32 -7 -110 -27 -173 -46 -63 -18 -130 -33 -147 -33 -18
0 -33 -3 -33 -8 0 -4 -5 -8 -11 -8 -5 0 -7 5 -4 10 9 14 -39 16 -93 4 -16 -3
-22 -10 -18 -19 6 -18 -26 -37 -48 -29 -20 8 -11 -24 55 -191 28 -71 59 -156
70 -187 35 -109 40 -115 121 -132 79 -16 218 -30 480 -47 146 -9 177 -9 240 6
121 27 412 124 442 148 23 18 33 44 61 152 19 71 45 161 59 200 60 171 60 169
20 296 -31 99 -159 537 -182 624 -9 34 -13 35 -172 57 l-94 13 -9 43 c-10 50
-34 65 -127 76 -85 10 -87 15 -26 78 73 75 96 146 96 297 0 74 -5 114 -15 135
-8 15 -15 36 -15 45 -1 9 -14 50 -30 91 l-30 75 40 33 c28 24 40 42 40 60 0
35 67 90 294 243 93 63 181 123 196 134 167 120 328 233 338 240 16 9 35 -13
161 -175 259 -337 502 -779 699 -1275 60 -149 96 -234 124 -290 14 -27 31 -68
38 -90 7 -22 18 -51 25 -65 17 -33 72 -178 80 -213 10 -38 19 -41 75 -22 l49
16 3 107 3 106 70 26 c88 34 216 73 324 99 47 12 89 27 93 34 5 6 6 28 2 47
-25 144 -429 941 -632 1246 -216 326 -512 664 -787 899 -89 76 -331 243 -412
284 -93 46 -284 119 -378 144 -166 43 -445 60 -612 36z m491 -504 c124 -26
212 -61 298 -120 75 -52 248 -209 248 -226 0 -22 -108 -105 -340 -263 -52 -35
-133 -91 -180 -123 -252 -175 -341 -232 -353 -227 -7 2 -40 -13 -72 -34 -33
-21 -93 -58 -133 -82 -42 -24 -79 -55 -87 -70 -13 -25 -150 -118 -425 -290
-41 -25 -142 -91 -225 -145 -82 -54 -201 -131 -263 -172 -163 -107 -463 -285
-469 -279 -9 9 13 58 167 366 167 334 323 599 494 840 341 482 668 751 1001
825 82 18 250 18 339 0z m-349 -2108 l110 -12 22 -135 c33 -202 63 -444 55
-451 -9 -9 -358 20 -388 32 -23 8 -23 9 -18 166 2 87 7 218 10 291 l6 132 47
-5 c25 -4 96 -12 156 -18z m370 -32 c23 -5 25 -10 110 -280 31 -99 67 -207 80
-240 12 -33 21 -64 18 -69 -5 -8 -230 0 -265 10 -9 3 -19 12 -22 20 -7 19
-106 541 -106 561 0 12 14 13 83 8 45 -3 91 -8 102 -10z m38 -852 c3 -16 2
-32 -3 -37 -11 -11 -33 31 -26 50 9 23 23 16 29 -13z"/>
<path d="M8247 5343 c-14 -13 -6 -21 23 -25 32 -5 37 1 18 20 -13 13 -31 16
-41 5z"/>
<path d="M7993 5323 c9 -2 25 -2 35 0 9 3 1 5 -18 5 -19 0 -27 -2 -17 -5z"/>
<path d="M7835 5309 c-4 -6 -5 -13 -2 -16 7 -7 27 6 27 18 0 12 -17 12 -25 -2z"/>
<path d="M7861 5251 c-20 -49 -61 -271 -61 -338 0 -23 5 -33 15 -33 11 0 15
11 15 38 0 68 29 290 44 333 21 60 13 60 -13 0z"/>
<path d="M8187 5207 c-19 -79 -37 -218 -37 -284 0 -36 3 -43 20 -43 18 0 20 7
20 76 0 41 5 130 11 196 6 65 9 121 7 124 -3 2 -12 -29 -21 -69z"/>
<path d="M4410 5060 c0 -5 5 -10 10 -10 6 0 10 5 10 10 0 6 -4 10 -10 10 -5 0
-10 -4 -10 -10z"/>
<path d="M8485 4870 c17 -4 41 -8 55 -8 l25 0 -25 8 c-14 4 -38 8 -55 8 l-30
0 30 -8z"/>
<path d="M8142 4781 c1 -49 6 -92 10 -96 19 -19 28 13 28 96 0 84 -1 89 -21
89 -20 0 -21 -4 -17 -89z"/>
<path d="M7797 4844 c-4 -4 -7 -45 -7 -91 0 -75 2 -84 18 -81 15 3 17 15 17
87 0 78 -9 104 -28 85z"/>
<path d="M8611 4846 c2 -2 31 -11 64 -19 33 -9 69 -19 79 -23 13 -5 17 -4 13
4 -4 6 -38 18 -77 26 -71 17 -86 19 -79 12z"/>
<path d="M3933 4774 c-6 -27 -21 -92 -33 -144 -23 -101 -39 -190 -34 -190 9 0
45 99 63 172 28 115 34 159 23 187 -8 22 -10 20 -19 -25z"/>
<path d="M7330 4807 c-24 -12 -25 -17 -25 -97 0 -85 0 -85 25 -82 39 4 47 21
54 110 7 90 2 97 -54 69z"/>
<path d="M7235 4777 c-52 -17 -55 -24 -55 -113 0 -46 1 -84 3 -84 2 0 24 7 50
16 l47 16 0 83 c0 46 -3 86 -7 88 -5 2 -21 0 -38 -6z"/>
<path d="M8938 4763 c7 -3 16 -2 19 1 4 3 -2 6 -13 5 -11 0 -14 -3 -6 -6z"/>
<path d="M7103 4735 l-33 -14 0 -86 c0 -47 4 -85 9 -85 4 0 22 5 40 11 l31 11
0 89 c0 49 -3 89 -7 89 -5 -1 -23 -7 -40 -15z"/>
<path d="M9040 4735 c0 -2 15 -11 33 -20 18 -8 45 -26 60 -40 15 -14 27 -22
27 -17 0 13 -62 59 -94 72 -14 5 -26 8 -26 5z"/>
<path d="M6988 4698 c-27 -9 -28 -11 -28 -92 0 -46 3 -85 6 -88 3 -3 21 -1 40
5 l34 10 0 89 c0 94 -1 95 -52 76z"/>
<path d="M8263 4580 c-100 -3 -185 -8 -189 -13 -4 -4 74 -4 174 -1 122 5 185
4 194 -3 11 -9 178 -57 425 -123 63 -16 90 -30 60 -30 -21 0 -21 -17 -3 -62
12 -28 13 -53 4 -141 -5 -59 -8 -114 -4 -122 4 -11 21 -15 61 -15 34 0 55 -4
55 -11 0 -7 10 -9 25 -7 14 3 28 2 31 -3 2 -4 15 -4 27 0 22 8 34 39 36 96 0
23 -2 26 -9 15 -7 -11 -10 3 -10 48 0 55 2 62 20 62 15 0 20 7 20 29 0 16 6
31 15 35 9 3 15 18 15 34 0 28 -3 30 -107 62 -151 46 -611 160 -637 158 -11
-1 -103 -5 -203 -8z m702 -170 c3 -5 1 -10 -4 -10 -6 0 -11 5 -11 10 0 6 2 10
4 10 3 0 8 -4 11 -10z m114 -90 c19 -5 38 -15 43 -22 4 -7 8 -52 8 -101 0 -84
-1 -88 -26 -99 -18 -9 -30 -9 -42 -1 -13 8 -20 6 -29 -6 -11 -15 -12 -14 -13
1 0 9 8 22 18 27 15 9 13 10 -10 11 -15 0 -30 5 -34 12 -12 19 -16 168 -5 168
7 0 11 -29 11 -75 0 -82 -1 -81 73 -99 l27 -6 0 84 c0 88 -4 96 -50 96 -10 0
-22 5 -25 10 -8 13 11 13 54 0z"/>
<path d="M9151 4564 c0 -11 3 -14 6 -6 3 7 2 16 -1 19 -3 4 -6 -2 -5 -13z"/>
<path d="M8187 4443 l-38 -4 3 -77 3 -77 80 0 80 0 0 80 0 80 -45 1 c-25 1
-62 -1 -83 -3z"/>
<path d="M7847 4433 c-4 -3 -7 -42 -7 -85 l0 -78 85 0 85 0 0 85 0 85 -78 0
c-43 0 -82 -3 -85 -7z"/>
<path d="M8717 4433 c-7 -12 11 -53 23 -53 17 0 23 29 10 45 -14 16 -26 19
-33 8z"/>
<path d="M3857 4423 c-3 -5 -10 -35 -17 -68 -7 -33 -14 -66 -17 -75 -4 -13 -3
-13 5 0 5 8 16 45 25 83 14 62 15 78 4 60z"/>
<path d="M7580 4421 l-65 -6 0 -80 0 -80 30 -3 c16 -2 53 -1 82 3 l53 6 0 85
c0 74 -2 84 -17 82 -10 -1 -47 -4 -83 -7z"/>
<path d="M8550 4346 c0 -94 -4 -88 78 -101 l42 -7 0 85 0 85 -50 11 c-28 6
-55 11 -60 11 -6 0 -10 -38 -10 -84z"/>
<path d="M7220 4356 l-35 -13 -3 -73 c-2 -40 1 -76 5 -80 4 -4 29 -1 56 7 l47
14 0 80 c0 88 -2 89 -70 65z"/>
<path d="M8790 4292 l0 -81 38 -10 c72 -20 72 -20 72 68 0 87 3 83 -72 97
l-38 6 0 -80z"/>
<path d="M7013 4289 l-43 -18 0 -69 c0 -38 2 -71 5 -74 3 -3 23 0 45 5 l39 11
3 79 c2 43 1 80 -2 82 -3 1 -24 -6 -47 -16z"/>
<path d="M3800 4210 c0 -11 2 -20 4 -20 2 0 6 9 9 20 3 11 1 20 -4 20 -5 0 -9
-9 -9 -20z"/>
<path d="M3792 4160 c0 -14 2 -19 5 -12 2 6 2 18 0 25 -3 6 -5 1 -5 -13z"/>
<path d="M8460 3990 c8 -5 24 -10 35 -10 17 0 17 2 5 10 -8 5 -24 10 -35 10
-17 0 -17 -2 -5 -10z"/>
<path d="M8528 3973 c6 -2 18 -2 25 0 6 3 1 5 -13 5 -14 0 -19 -2 -12 -5z"/>
<path d="M8805 3911 c127 -31 261 -67 299 -79 93 -30 95 -29 82 13 -10 32 -13
34 -51 32 -22 -1 -43 -6 -46 -11 -6 -8 -21 -5 -174 32 -134 33 -258 60 -300
66 -22 3 64 -21 190 -53z"/>
<path d="M8280 3903 c-96 -1 -328 -9 -515 -18 -380 -18 -371 -16 -700 -121
-197 -62 -200 -64 -182 -87 11 -16 16 -16 82 2 39 11 115 36 170 57 289 105
387 118 955 118 l365 1 280 -72 c154 -40 294 -79 311 -87 21 -10 33 -24 37
-43 5 -24 38 -53 61 -53 1 0 15 27 31 60 18 37 25 64 19 70 -21 20 -548 147
-724 173 -8 1 -94 1 -190 0z"/>
<path d="M7952 3813 c-23 -4 -23 -7 -20 -101 3 -88 5 -97 23 -100 18 -2 20 3
20 48 0 34 5 54 15 60 8 5 12 10 8 10 -5 0 1 9 12 20 12 12 26 18 32 14 7 -4
8 -3 4 4 -5 8 3 12 23 12 34 0 38 -9 50 -102 l7 -63 8 53 c4 28 5 75 1 102
l-7 50 -76 -1 c-43 -1 -87 -4 -100 -6z"/>
<path d="M8182 3718 l2 -103 3 88 4 87 37 0 c79 0 82 -3 82 -91 0 -64 3 -79
15 -79 13 0 15 15 13 98 l-3 97 -77 3 -78 3 2 -103z"/>
<path d="M7766 3801 l-29 -6 -2 -99 -3 -99 51 7 c29 3 67 6 85 6 l32 0 0 100
0 100 -52 -1 c-29 -1 -66 -4 -82 -8z"/>
<path d="M7500 3685 l0 -105 38 5 c20 2 63 7 95 10 l57 6 0 95 0 94 -95 0 -95
0 0 -105z"/>
<path d="M8490 3695 c0 -94 0 -96 27 -106 15 -5 46 -13 70 -16 l44 -6 -3 98
-3 99 -50 13 c-88 23 -85 26 -85 -82z"/>
<path d="M8662 3653 l3 -97 70 -17 c38 -10 72 -16 75 -13 7 8 6 181 -2 189 -6
7 -114 34 -136 35 -10 0 -12 -23 -10 -97z"/>
<path d="M7250 3719 c-36 -12 -69 -25 -75 -31 -11 -11 -9 -11 83 17 34 10 62
22 62 27 0 4 -1 8 -2 7 -2 0 -32 -9 -68 -20z"/>
<path d="M8847 3703 c-4 -3 -7 -46 -7 -95 0 -87 0 -89 27 -99 34 -13 123 -32
128 -27 1 1 4 43 6 93 l4 89 -60 18 c-33 10 -67 21 -76 23 -8 3 -18 2 -22 -2z"/>
<path d="M7057 3653 c-60 -23 -68 -29 -63 -47 3 -12 6 -30 7 -41 1 -11 4 -5 8
14 5 31 12 37 61 57 30 12 56 27 58 33 5 14 10 15 -71 -16z"/>
<path d="M7795 3561 l-60 -6 -3 -174 -2 -174 82 7 c45 4 83 8 84 9 1 1 4 80 6
175 l3 172 -25 -2 c-14 -1 -52 -4 -85 -7z"/>
<path d="M7930 3395 l0 -176 103 3 102 3 2 173 2 172 -104 0 -105 0 0 -175z
m140 117 c0 -21 5 -43 12 -50 9 -9 7 -13 -7 -18 -13 -5 -29 5 -62 39 -24 26
-41 52 -38 57 3 6 26 10 51 10 l44 0 0 -38z"/>
<path d="M8173 3488 c4 -46 7 -124 7 -173 l0 -91 38 5 37 4 -32 9 -33 9 1 112
c1 111 2 117 13 65 7 -32 22 -37 29 -10 3 13 8 9 18 -16 8 -19 19 -30 26 -28
7 3 14 0 14 -7 1 -7 5 4 9 23 4 24 7 7 8 -57 1 -66 -2 -93 -11 -94 -7 0 -3 -4
8 -8 11 -5 23 -7 28 -4 4 2 7 80 7 174 l0 169 -86 0 -87 0 6 -82z"/>
<path d="M7575 3551 l-80 -6 -2 -120 c-2 -66 0 -144 3 -173 l6 -54 86 7 c48 4
88 8 88 9 1 0 4 79 7 174 5 158 5 172 -11 170 -9 -1 -53 -4 -97 -7z"/>
<path d="M8492 3383 l3 -178 63 -17 c48 -13 64 -14 68 -4 2 6 3 88 2 181 l-3
169 -55 12 c-30 7 -61 13 -68 14 -10 0 -12 -39 -10 -177z"/>
<path d="M8662 3345 l3 -178 71 -17 72 -17 4 161 c2 89 2 169 0 178 -4 19 -42
34 -110 44 l-42 7 2 -178z"/>
<path d="M7238 3473 c7 -3 16 -2 19 1 4 3 -2 6 -13 5 -11 0 -14 -3 -6 -6z"/>
<path d="M8844 3467 c-2 -7 -3 -87 -2 -177 l3 -165 53 -11 c29 -7 64 -15 78
-18 l24 -6 -2 177 -3 177 -40 12 c-77 21 -106 24 -111 11z"/>
<path d="M7175 3459 c-11 -17 -2 -18 19 -3 17 12 17 14 4 14 -9 0 -20 -5 -23
-11z"/>
<path d="M7060 3427 c-55 -19 -65 -26 -64 -44 0 -13 2 -89 4 -170 l4 -148 6
165 5 165 58 18 c31 10 57 23 57 28 0 5 -1 9 -2 8 -2 0 -32 -10 -68 -22z"/>
<path d="M9136 3172 c-3 -6 -2 -20 2 -31 8 -22 8 -22 32 4 13 14 19 25 13 25
-6 0 -18 3 -26 6 -8 3 -18 1 -21 -4z"/>
<path d="M7905 3161 l-170 -6 -3 -63 c-2 -44 1 -64 10 -67 7 -2 99 -1 203 3
l190 7 0 65 0 65 -30 1 c-16 0 -106 -2 -200 -5z"/>
<path d="M8182 3103 c1 -56 2 -60 5 -21 4 47 4 47 36 41 40 -7 49 -16 63 -56
7 -21 18 -33 32 -35 21 -3 22 0 22 67 l0 71 -80 0 -80 0 2 -67z"/>
<path d="M7528 3143 c-27 -4 -28 -6 -28 -72 l0 -67 73 7 c39 4 82 8 95 8 20 1
22 5 22 66 l0 65 -67 -1 c-38 -1 -80 -4 -95 -6z"/>
<path d="M8496 3143 c-3 -3 -6 -33 -6 -65 0 -66 5 -70 94 -83 l47 -7 -3 68 -3
68 -40 8 c-22 4 -49 10 -61 13 -12 2 -24 2 -28 -2z"/>
<path d="M8662 3043 l3 -68 40 -6 c22 -3 55 -9 73 -13 l33 -8 -3 68 -3 68 -55
12 c-94 22 -91 24 -88 -53z"/>
<path d="M7208 3068 l-38 -10 0 -59 c0 -76 18 -77 22 -2 l3 57 45 12 c25 7 36
12 25 12 -11 0 -37 -5 -57 -10z"/>
<path d="M8842 3003 l3 -67 74 -13 c40 -8 76 -12 78 -9 3 2 6 31 6 62 l2 58
-55 18 c-30 9 -68 17 -83 17 l-28 1 3 -67z"/>
<path d="M7050 3022 c-30 -10 -54 -21 -52 -25 1 -4 2 -30 2 -57 0 -50 0 -50
28 -44 95 23 97 24 102 87 6 66 6 66 -80 39z"/>
<path d="M7985 2973 l-50 -4 3 -54 4 -55 53 0 c29 0 73 3 99 6 l46 7 0 53 0
54 -52 -2 c-29 -1 -75 -3 -103 -5z"/>
<path d="M8180 2925 l0 -55 80 0 80 0 0 55 0 55 -80 0 -80 0 0 -55z"/>
<path d="M7737 2963 c-4 -3 -7 -28 -7 -55 l0 -48 89 0 89 0 4 55 3 55 -86 0
c-47 0 -89 -3 -92 -7z"/>
<path d="M7497 2953 c-2 -5 -1 -32 1 -62 l4 -53 92 7 c50 4 92 8 92 8 1 1 4
26 6 55 l5 52 -98 0 c-54 0 -100 -3 -102 -7z"/>
<path d="M8490 2901 c0 -65 -4 -63 93 -76 l47 -7 0 59 0 59 -58 12 c-85 18
-82 19 -82 -47z"/>
<path d="M3120 2915 c0 -19 4 -35 9 -35 5 0 16 -3 25 -6 13 -5 16 2 16 35 0
37 -2 41 -25 41 -22 0 -25 -4 -25 -35z"/>
<path d="M3252 2904 c2 -32 7 -40 26 -42 19 -3 22 1 22 32 0 20 -4 36 -9 36
-5 0 -17 3 -26 6 -14 6 -16 0 -13 -32z"/>
<path d="M8666 2922 c-3 -3 -6 -29 -6 -58 0 -53 0 -53 38 -64 20 -5 54 -13 75
-16 l37 -7 0 62 c0 42 -4 61 -12 61 -7 1 -39 7 -70 14 -31 8 -59 11 -62 8z"/>
<path d="M3437 2907 c-7 -17 3 -67 13 -67 5 0 15 -3 24 -6 13 -5 16 2 16 35 0
23 -4 41 -9 41 -5 0 -16 3 -24 6 -8 3 -17 -1 -20 -9z"/>
<path d="M7265 2905 c-22 -7 -52 -16 -67 -19 -27 -6 -28 -9 -28 -62 0 -54 1
-56 23 -50 12 4 46 12 75 18 l52 12 0 58 c0 32 -3 58 -7 57 -5 0 -26 -7 -48
-14z"/>
<path d="M3560 2866 c0 -32 3 -36 26 -36 23 0 25 3 22 33 -2 24 -8 33 -25 35
-20 3 -23 -1 -23 -32z"/>
<path d="M8840 2831 c0 -66 -6 -62 94 -81 37 -8 62 -8 68 -2 5 5 8 31 6 58
l-3 48 -46 12 c-26 6 -63 14 -83 18 l-36 7 0 -60z"/>
<path d="M7058 2848 l-58 -20 0 -54 c0 -49 10 -68 24 -45 3 5 26 12 51 16 50
7 51 8 58 78 5 54 6 54 -75 25z m-21 -85 c-3 -10 -5 -4 -5 12 0 17 2 24 5 18
2 -7 2 -21 0 -30z"/>
<path d="M7973 2823 l-33 -4 0 -95 0 -94 100 0 100 0 0 100 0 100 -67 -2 c-38
0 -83 -3 -100 -5z"/>
<path d="M8179 2826 c-2 -2 -3 -47 -1 -100 l3 -96 80 1 79 1 0 93 0 92 -61 7
c-72 7 -94 8 -100 2z"/>
<path d="M7737 2813 c-8 -8 -9 -139 -1 -168 5 -19 12 -20 82 -17 42 2 79 6 81
8 3 3 7 45 9 94 l4 90 -84 0 c-47 0 -88 -3 -91 -7z"/>
<path d="M7523 2803 c-22 -4 -23 -9 -23 -100 l0 -96 93 8 c50 4 93 8 93 8 1 1
4 44 5 95 l4 92 -75 -1 c-41 -1 -85 -4 -97 -6z"/>
<path d="M8490 2715 c0 -93 1 -96 25 -105 14 -5 45 -11 68 -12 l42 -3 3 86 c2
61 -1 89 -10 96 -12 10 -95 33 -117 33 -7 0 -11 -35 -11 -95z"/>
<path d="M8660 2676 c0 -107 -6 -100 93 -112 l57 -6 0 94 0 95 -57 12 c-98 19
-93 24 -93 -83z"/>
<path d="M7230 2741 l-55 -17 -3 -88 c-3 -80 -1 -87 15 -82 10 2 44 10 76 16
l57 11 0 90 c0 102 3 99 -90 70z"/>
<path d="M8840 2646 l0 -95 38 -10 c20 -6 56 -13 79 -17 l41 -6 7 43 c3 24 5
67 3 94 l-3 50 -45 11 c-25 6 -62 14 -82 18 l-38 7 0 -95z"/>
<path d="M7048 2692 l-48 -16 0 -84 c0 -82 1 -84 23 -79 12 3 39 9 60 13 42 7
54 25 51 77 -1 18 -2 49 -3 70 -1 43 -8 44 -83 19z m32 -32 c-8 -5 -24 -10
-35 -10 -17 0 -17 2 -5 10 8 5 24 10 35 10 17 0 17 -2 5 -10z"/>
<path d="M7910 2591 l-175 -6 1 -183 c1 -100 5 -181 10 -180 5 2 7 78 5 170
-3 136 -1 169 10 172 8 3 94 6 192 8 104 2 177 8 177 13 1 12 -5 12 -220 6z"/>
<path d="M8182 2414 l2 -189 3 173 3 172 67 0 66 0 -7 -114 c-8 -118 0 -236
15 -236 5 0 9 83 9 185 l0 185 -27 0 c-16 0 -52 3 -80 6 l-53 7 2 -189z"/>
<path d="M7548 2573 l-48 -4 0 -186 0 -186 62 7 c34 4 66 10 70 12 4 3 8 34 8
68 0 37 6 76 15 92 15 28 15 27 15 -40 0 -38 2 -67 5 -65 2 3 5 65 6 139 0 74
5 143 10 153 9 15 4 17 -43 15 -29 -1 -74 -3 -100 -5z m122 -59 c0 -19 -4 -33
-9 -29 -5 3 -12 -3 -14 -12 -3 -10 -5 -4 -6 14 0 17 2 38 5 47 11 28 24 17 24
-20z m-3 -81 c-3 -10 -5 -4 -5 12 0 17 2 24 5 18 2 -7 2 -21 0 -30z"/>
<path d="M8490 2388 l0 -186 44 -11 c25 -6 56 -11 70 -11 l26 0 0 184 c0 102
-4 187 -9 190 -5 4 -37 9 -70 12 l-61 7 0 -185z"/>
<path d="M923 2543 c-15 -5 -18 -33 -4 -33 21 0 41 13 41 26 0 14 -14 17 -37
7z"/>
<path d="M3352 2473 l3 -78 50 0 50 0 6 40 6 40 2 -42 1 -43 70 0 c39 0 73 -1
78 -2 4 -2 10 16 13 39 8 60 19 65 19 10 0 -25 3 -48 8 -50 4 -3 39 -7 77 -8
l70 -4 5 55 c6 61 20 47 20 -20 l0 -37 90 -7 c49 -4 94 -5 100 -1 11 7 13 104
2 121 -8 13 -108 22 -529 49 -23 2 -65 6 -93 10 l-51 7 3 -79z"/>
<path d="M8660 2355 l0 -184 38 -7 c20 -3 53 -10 73 -14 l36 -7 5 156 c7 218
7 217 -54 230 -27 6 -60 11 -73 11 l-25 0 0 -185z"/>
<path d="M7225 2516 l-50 -11 -3 -178 c-2 -170 -2 -177 17 -177 28 0 124 22
135 31 4 4 5 83 1 178 -8 194 0 181 -100 157z m60 -26 c-3 -5 1 -10 9 -10 10
0 16 -8 15 -22 0 -13 -3 -17 -6 -11 -3 9 -11 8 -30 -4 -26 -17 -26 -17 -21 10
3 16 1 27 -6 27 -15 0 16 20 32 20 7 0 10 -4 7 -10z"/>
<path d="M8840 2346 c0 -91 4 -175 9 -188 7 -20 21 -26 74 -36 35 -7 69 -12
76 -12 8 0 11 53 11 184 l0 184 -69 16 c-110 25 -101 39 -101 -148z"/>
<path d="M1540 2415 c0 -76 3 -88 23 -109 28 -28 80 -25 102 7 22 31 21 177
-1 177 -12 0 -15 -10 -13 -47 5 -91 0 -130 -18 -137 -32 -13 -45 17 -46 108
-2 82 -3 86 -24 86 -22 0 -23 -3 -23 -85z"/>
<path d="M1730 2460 c0 -18 5 -30 13 -30 7 0 30 -31 50 -70 21 -38 42 -72 48
-75 5 -4 8 25 7 72 0 43 -3 63 -5 46 -2 -18 -8 -33 -13 -33 -6 0 -23 27 -40
60 -33 66 -60 79 -60 30z"/>
<path d="M1840 2475 c0 -8 2 -15 4 -15 2 0 6 7 10 15 3 8 1 15 -4 15 -6 0 -10
-7 -10 -15z"/>
<path d="M1910 2380 c0 -98 2 -110 18 -110 15 0 17 12 17 102 0 94 -6 117 -27
118 -5 0 -8 -49 -8 -110z"/>
<path d="M4052 2423 l3 -68 64 -3 c74 -3 81 2 81 65 0 70 -4 73 -82 73 l-69 0
3 -67z"/>
<path d="M7050 2476 l-45 -12 -3 -178 c-2 -149 0 -177 11 -173 8 3 36 9 63 13
27 4 52 12 57 18 4 6 6 86 5 179 -2 189 4 178 -88 153z"/>
<path d="M1997 2428 c47 -183 61 -198 87 -92 9 37 23 82 31 100 12 30 12 34
-1 34 -8 0 -14 -10 -15 -22 -1 -32 -23 -91 -36 -95 -6 -2 -19 26 -29 62 -13
45 -24 65 -35 65 -14 0 -15 -5 -2 -52z"/>
<path d="M4212 2417 c2 -37 6 -68 8 -71 3 -2 25 -6 50 -7 l45 -4 3 40 c5 61
22 68 22 8 l0 -50 56 -7 c30 -3 60 -4 65 -1 5 4 9 31 9 61 0 30 5 54 10 54 6
0 10 -26 10 -59 l0 -59 58 -5 c31 -2 58 -4 59 -2 2 1 4 31 5 66 l3 64 -92 11
c-50 7 -142 15 -203 19 l-112 7 4 -65z"/>
<path d="M2164 2454 c3 -9 6 -56 6 -105 l0 -89 27 0 c24 0 25 1 9 13 -15 11
-17 26 -14 105 3 84 1 92 -16 92 -12 0 -16 -5 -12 -16z"/>
<path d="M2310 2360 c0 -89 2 -100 18 -100 14 0 17 7 14 40 -3 24 0 40 7 40 6
0 20 -18 31 -40 27 -52 43 -51 24 2 -13 36 -12 43 1 58 20 22 19 64 -1 84 -9
9 -32 16 -55 16 l-39 0 0 -100z m76 63 c8 -30 -5 -56 -30 -61 -13 -3 -16 5
-16 42 0 39 3 46 20 46 13 0 22 -9 26 -27z"/>
<path d="M2463 2439 c-23 -23 -14 -57 27 -99 31 -33 39 -47 34 -64 -6 -18 -5
-19 10 -7 25 21 19 47 -18 89 -19 20 -36 50 -38 65 -2 23 -5 26 -15 16z"/>
<path d="M2590 2350 c0 -60 4 -100 10 -100 6 0 10 40 10 100 0 60 -4 100 -10
100 -6 0 -10 -40 -10 -100z"/>
<path d="M2664 2437 c-3 -8 -4 -54 -2 -103 2 -66 6 -89 16 -89 19 0 23 193 4
200 -7 2 -15 -1 -18 -8z"/>
<path d="M2723 2433 c10 -3 22 -16 28 -29 12 -33 12 -110 -1 -135 -14 -25 2
-24 25 1 25 28 26 107 2 143 -12 19 -25 27 -45 26 -18 -1 -21 -3 -9 -6z"/>
<path d="M2874 2425 c-4 -10 -1 -34 6 -54 7 -20 14 -43 15 -51 1 -8 7 -25 13
-37 7 -12 9 -29 6 -37 -5 -12 0 -16 20 -16 26 0 26 1 12 29 -9 16 -24 61 -35
101 -23 82 -28 90 -37 65z"/>
<path d="M4633 2377 l2 -66 55 -6 c30 -4 64 -7 75 -8 17 -2 22 7 31 63 l11 65
4 -65 4 -65 79 -8 c44 -4 86 -5 93 -3 9 4 13 26 13 69 l0 64 -92 7 c-51 3
-134 9 -185 13 l-91 6 1 -66z"/>
<path d="M2985 2333 c0 -54 5 -101 10 -105 19 -14 62 -8 87 12 31 23 40 63 28
116 -11 49 -41 74 -89 74 l-36 0 0 -97z m75 65 c41 -44 22 -158 -27 -158 -10
0 -13 21 -13 90 0 51 4 90 10 90 5 0 18 -10 30 -22z"/>
<path d="M1731 2348 c-1 -38 3 -68 7 -68 5 0 7 26 5 58 -6 83 -11 87 -12 10z"/>
<path d="M5014 2379 c3 -17 6 -46 6 -64 0 -32 1 -33 53 -40 28 -3 60 -9 70
-11 11 -4 17 0 17 10 0 20 16 21 24 1 3 -9 18 -15 36 -15 28 0 30 2 31 43 l1
42 11 -42 c10 -42 11 -43 51 -43 23 0 51 -3 64 -6 21 -6 22 -3 24 52 l1 59 6
-55 6 -55 65 -6 c36 -4 68 -5 73 -2 4 2 7 31 7 64 l0 59 -38 0 c-21 0 -132 9
-247 20 -282 27 -269 27 -261 -11z"/>
<path d="M3357 2374 c-4 -4 -7 -78 -7 -165 l0 -158 43 -6 c23 -3 77 -7 119 -8
93 -3 88 -14 88 175 0 156 9 142 -105 153 -38 3 -84 8 -100 11 -17 3 -34 2
-38 -2z"/>
<path d="M5584 2351 c-2 -2 -4 -28 -4 -57 0 -59 -5 -56 108 -69 l52 -7 0 50
c0 28 5 54 10 57 6 4 10 -14 10 -48 l0 -54 53 -7 c87 -10 85 -11 90 37 l4 42
1 -41 2 -41 70 -10 c79 -10 80 -10 80 67 l0 48 -52 6 c-154 17 -417 34 -424
27z"/>
<path d="M3637 2344 c-11 -11 -8 -302 2 -309 6 -3 49 -8 98 -11 48 -3 128 -8
177 -11 69 -4 90 -3 97 8 14 23 11 289 -3 293 -7 2 -76 9 -153 15 -77 7 -156
14 -175 17 -20 3 -39 2 -43 -2z"/>
<path d="M6075 2310 c-4 -6 -3 -35 0 -65 l7 -55 49 -2 c27 -1 59 -2 71 -2 17
-1 24 6 29 29 l7 30 1 -31 c1 -28 5 -32 39 -38 20 -3 56 -6 80 -6 l42 0 0 55
c0 36 -5 57 -12 60 -7 2 -49 6 -93 9 -77 5 -146 12 -192 22 -12 2 -25 -1 -28
-6z"/>
<path d="M4054 2159 c4 -85 8 -155 9 -155 1 -1 61 -5 132 -8 72 -4 145 -9 163
-12 l32 -6 0 155 0 155 -32 6 c-18 3 -96 8 -172 12 l-139 7 7 -154z"/>
<path d="M4434 2281 c-2 -2 -4 -71 -4 -152 0 -169 -7 -159 108 -159 49 0 64 4
69 17 6 14 7 13 14 -5 7 -17 18 -21 81 -24 40 -2 76 -2 81 0 4 2 7 70 7 151
l0 148 -176 14 c-97 8 -178 12 -180 10z"/>
<path d="M2450 2270 c0 -5 5 -10 11 -10 5 0 7 5 4 10 -3 6 -8 10 -11 10 -2 0
-4 -4 -4 -10z"/>
<path d="M6410 2225 l0 -54 35 -6 c19 -3 51 -7 70 -10 l35 -6 0 56 c0 31 4 54
9 51 5 -4 9 -27 8 -54 l-1 -47 44 -7 c90 -13 90 -13 92 40 l1 47 4 -42 c2 -23
9 -46 16 -51 7 -5 38 -12 70 -15 l57 -6 0 60 c0 70 18 63 -216 84 -246 22
-224 25 -224 -40z"/>
<path d="M7667 2240 c-3 -11 -1 -20 4 -20 5 0 9 9 9 20 0 11 -2 20 -4 20 -2 0
-6 -9 -9 -20z"/>
<path d="M2810 2240 c0 -5 5 -10 10 -10 6 0 10 5 10 10 0 6 -4 10 -10 10 -5 0
-10 -4 -10 -10z"/>
<path d="M4800 2100 c0 -129 2 -149 15 -144 12 5 15 29 15 131 l0 126 31 -7
c17 -3 42 -6 55 -6 23 0 23 -1 26 -127 3 -120 4 -128 23 -128 19 0 20 8 23
146 3 170 11 159 -115 159 l-73 0 0 -150z"/>
<path d="M5020 2092 l0 -151 55 -6 c88 -11 85 -16 85 150 l0 145 -32 0 c-18 0
-50 3 -70 6 l-38 7 0 -151z"/>
<path d="M6861 2165 c2 -41 6 -75 9 -75 10 0 30 54 30 79 0 42 -11 71 -27 71
-11 0 -14 -15 -12 -75z"/>
<path d="M1047 2213 c-4 -3 -7 -14 -7 -24 0 -12 -5 -16 -15 -13 -8 4 -15 1
-15 -5 0 -20 -45 -11 -73 15 -16 14 -30 24 -32 22 -10 -10 9 -47 26 -51 25 -7
24 -25 -7 -86 -21 -44 -29 -51 -54 -51 -16 0 -32 5 -35 10 -3 6 -15 10 -27 10
-11 0 -22 8 -25 20 -3 11 -12 20 -19 20 -8 0 -14 5 -14 11 0 6 -7 3 -16 -6
-15 -15 -15 -17 2 -30 18 -13 18 -14 -1 -34 -10 -12 -25 -19 -32 -17 -7 3 -15
0 -19 -5 -3 -6 -15 -9 -25 -6 -12 3 -32 -7 -56 -29 -21 -18 -43 -34 -50 -34
-15 0 -20 -17 -15 -52 2 -15 10 -28 17 -28 7 0 20 -10 28 -22 13 -19 16 -20
16 -5 1 20 12 22 30 5 10 -11 14 -9 22 5 6 9 15 14 21 11 6 -4 13 -1 17 5 4 6
18 13 30 16 13 2 29 9 37 16 8 6 27 9 44 6 21 -5 32 -2 38 10 7 11 18 14 37
11 19 -4 33 0 46 13 10 10 25 16 34 13 8 -4 17 1 21 10 3 9 12 16 20 16 9 0
14 11 14 31 0 23 11 41 44 73 24 24 47 52 50 64 4 12 16 24 27 27 11 4 19 15
19 29 0 18 -7 25 -31 30 -41 8 -64 8 -72 -1z"/>
<path d="M5180 2214 c0 -14 14 -29 28 -30 6 -1 39 -2 72 -2 l59 -2 3 -130 c4
-174 22 -173 26 1 l3 132 52 -7 c29 -3 62 -6 75 -6 22 0 22 -2 22 -130 0 -109
2 -130 15 -130 13 0 15 22 15 139 0 82 -4 142 -10 146 -5 3 -47 8 -92 11 -46
3 -125 8 -175 11 -52 3 -93 2 -93 -3z"/>
<path d="M1735 2090 c0 -92 2 -110 15 -110 13 0 15 12 12 71 -5 84 3 85 49 4
52 -93 57 -91 61 29 2 78 0 106 -9 106 -8 0 -13 -22 -15 -62 l-3 -63 -35 65
c-23 42 -42 66 -55 68 -19 3 -20 -3 -20 -108z"/>
<path d="M1967 2183 c-2 -4 -8 -26 -11 -48 -7 -37 -6 -38 7 -20 15 19 15 19
25 -5 19 -51 32 -97 32 -118 0 -16 6 -22 23 -22 l24 0 -37 107 c-34 99 -51
127 -63 106z"/>
<path d="M5590 2045 l0 -145 29 0 c15 0 49 -3 75 -6 l46 -7 0 145 0 145 -37 7
c-21 3 -55 6 -75 6 l-38 0 0 -145z"/>
<path d="M2101 2154 c-29 -37 -29 -121 0 -158 16 -20 29 -26 60 -26 22 0 39 5
39 11 0 7 -9 9 -24 5 -33 -8 -53 19 -61 79 -10 83 31 130 77 88 20 -18 20 -17
17 2 -3 16 -13 21 -45 23 -35 3 -45 -1 -63 -24z"/>
<path d="M2244 2075 c1 -87 4 -105 16 -105 13 0 16 16 18 88 1 48 5 95 8 105
4 13 0 17 -19 17 -24 0 -24 0 -23 -105z"/>
<path d="M5768 2038 c2 -79 7 -146 10 -150 9 -9 110 -14 118 -5 4 3 14 3 23
-2 29 -15 131 -21 131 -8 0 9 2 9 8 1 8 -13 314 -40 331 -29 6 3 12 18 12 33
1 27 1 27 8 -3 5 -26 12 -31 54 -38 78 -15 77 -16 77 141 l0 139 -107 8 c-60
5 -130 9 -158 10 -27 1 -61 5 -75 8 -14 4 -63 9 -110 11 -47 3 -110 8 -140 11
-30 2 -84 7 -120 10 l-65 5 3 -142z m463 15 c-8 -14 -10 -9 -10 27 1 42 1 43
10 18 7 -18 7 -33 0 -45z"/>
<path d="M2325 2140 c-29 -56 -11 -158 30 -174 32 -12 62 -6 82 17 28 30 36
60 28 106 -9 55 -37 81 -85 81 -34 0 -42 -4 -55 -30z m93 -5 c19 -41 15 -119
-7 -146 -18 -22 -21 -23 -36 -8 -21 21 -32 127 -16 157 16 30 45 28 59 -3z"/>
<path d="M2500 2162 c0 -17 103 -202 113 -202 12 0 17 189 5 197 -5 2 -8 -21
-8 -51 0 -63 -13 -71 -38 -24 -23 42 -71 96 -72 80z"/>
<path d="M7760 2161 c-17 -5 -25 -14 -24 -29 0 -12 1 -43 2 -68 l2 -46 198 5
197 6 0 68 0 68 -175 2 c-96 1 -186 -2 -200 -6z"/>
<path d="M8180 2095 l0 -75 80 0 80 0 0 69 0 68 -52 7 c-29 3 -65 6 -80 6
l-28 0 0 -75z m98 2 l3 -38 -43 3 c-42 3 -43 4 -46 41 l-3 38 43 -3 c42 -3 43
-4 46 -41z"/>
<path d="M7548 2153 l-48 -4 0 -70 0 -69 34 0 c18 0 60 3 92 6 l59 6 0 63 0
63 -35 6 c-19 3 -39 5 -45 4 -5 -1 -31 -3 -57 -5z m122 -52 c0 -22 -4 -43 -10
-46 -6 -4 -10 12 -10 39 0 25 5 46 10 46 6 0 10 -18 10 -39z"/>
<path d="M2718 2132 c-3 -10 1 -27 8 -37 21 -29 18 -65 -6 -65 -12 0 -20 7
-21 18 0 14 -2 14 -9 -3 -13 -31 -12 -36 13 -30 27 7 57 -13 61 -40 2 -11 12
-21 24 -23 20 -3 20 -1 -12 94 -32 97 -49 122 -58 86z"/>
<path d="M2838 2050 c3 -86 6 -100 20 -100 15 0 17 12 14 100 -3 86 -6 100
-20 100 -15 0 -17 -12 -14 -100z"/>
<path d="M8492 2079 c3 -70 4 -73 31 -80 15 -4 45 -9 65 -11 l37 -3 3 71 c3
80 9 75 -91 89 l-48 7 3 -73z"/>
<path d="M9915 2120 c-4 -6 -22 -9 -41 -8 -37 2 -54 -12 -54 -44 0 -10 -4 -18
-10 -18 -5 0 -10 7 -10 15 0 22 -13 18 -40 -10 -13 -14 -29 -24 -34 -22 -10 3
-36 -36 -36 -54 0 -5 7 -9 15 -9 17 0 20 -26 4 -36 -6 -3 -16 -1 -22 5 -16 16
-54 14 -61 -4 -9 -24 -26 -17 -26 10 0 29 -29 35 -50 10 -14 -17 -46 -20 -55
-5 -7 12 -53 -8 -52 -24 1 -45 -5 -57 -38 -73 -33 -16 -46 -33 -25 -33 6 0 10
-9 10 -19 0 -17 10 -20 78 -25 42 -4 89 -9 105 -11 24 -4 27 -2 27 25 0 17 5
30 11 30 7 0 18 8 25 18 13 16 15 16 28 -1 14 -18 14 -18 21 2 8 25 21 27 33
4 7 -12 17 -14 41 -10 22 5 31 3 31 -7 0 -18 44 -36 88 -36 31 0 39 -5 50 -28
12 -25 10 -29 -13 -49 -30 -26 -75 -31 -75 -8 0 8 -4 15 -8 15 -17 0 -32 -26
-32 -56 0 -43 -23 -61 -54 -44 -13 7 -29 9 -35 6 -6 -4 -14 0 -17 8 -9 24 -34
19 -34 -6 0 -13 -9 -34 -20 -48 -24 -30 -25 -40 -5 -40 8 0 15 -7 15 -15 0 -8
-7 -15 -15 -15 -8 0 -15 5 -15 11 0 6 -9 1 -19 -12 -20 -25 -21 -24 -34 21 -2
10 -16 15 -38 15 -26 0 -33 4 -31 16 1 9 -4 19 -13 23 -21 8 -19 20 10 47 13
13 25 28 25 32 0 18 -26 34 -45 26 -11 -4 -30 -5 -42 -2 -13 3 -23 0 -23 -5 0
-7 -14 -9 -34 -5 -32 5 -35 3 -38 -23 -2 -24 -8 -29 -35 -32 -23 -2 -33 -9
-37 -28 -4 -13 -14 -24 -23 -24 -9 0 -25 -7 -35 -17 -17 -15 -19 -15 -37 1
-16 15 -20 15 -31 1 -7 -8 -10 -25 -6 -39 8 -31 -17 -54 -39 -36 -17 14 -38 3
-31 -17 3 -8 -1 -27 -9 -43 -8 -16 -15 -36 -15 -43 0 -20 73 -27 96 -10 27 20
75 16 101 -8 17 -16 26 -19 35 -11 10 8 27 6 63 -5 74 -24 119 -56 170 -121
90 -113 102 -144 122 -314 6 -55 -7 -63 -34 -22 -9 15 -36 34 -59 44 -42 19
-114 82 -114 101 0 6 9 13 21 16 16 5 19 11 14 33 -3 16 -1 31 4 35 6 3 11 17
11 30 0 19 -7 26 -27 31 -16 3 -34 7 -40 10 -22 6 -43 -7 -43 -27 0 -15 -5
-18 -32 -12 -18 3 -41 12 -50 21 -20 17 -48 10 -48 -12 0 -8 -10 -18 -22 -22
-13 -4 -28 -14 -34 -23 -10 -12 -15 -13 -27 -3 -8 7 -13 21 -10 31 4 15 -1 18
-34 17 -35 -1 -38 -3 -35 -27 2 -15 -3 -33 -11 -40 -7 -8 -12 -20 -9 -27 2 -6
-1 -12 -7 -12 -6 0 -13 11 -17 24 -5 22 -8 23 -35 13 -30 -12 -38 -32 -16 -40
19 -7 1 -19 -35 -22 -18 -2 -43 3 -55 11 -28 18 -33 18 -33 0 0 -14 67 -33
100 -29 8 2 22 0 30 -4 18 -8 27 -10 40 -12 6 0 10 -10 10 -21 0 -11 4 -20 8
-20 5 0 25 -16 45 -35 20 -19 38 -35 40 -35 3 0 7 14 11 31 5 29 9 31 36 26
25 -5 31 -2 43 21 9 20 19 26 37 24 14 -1 30 5 37 14 11 15 17 15 38 6 21 -10
27 -9 31 3 4 8 11 15 18 15 6 0 58 -48 116 -105 83 -84 100 -105 82 -105 -20
0 -22 -5 -22 -62 0 -36 6 -75 15 -92 8 -15 12 -33 8 -39 -6 -10 13 -7 50 8 14
6 17 2 17 -20 0 -21 7 -30 38 -43 33 -14 38 -20 38 -53 1 -31 -3 -39 -24 -49
-22 -10 -28 -9 -38 5 -8 11 -20 15 -33 10 -12 -4 -21 -2 -21 4 0 6 -11 11 -25
11 -15 0 -25 6 -25 14 0 8 -11 26 -24 41 -20 21 -30 24 -65 20 -22 -3 -41 -1
-41 4 0 5 -2 16 -5 24 -4 8 9 24 35 41 l40 26 0 79 0 78 -92 10 c-51 5 -96 8
-100 6 -9 -5 -10 -128 -2 -160 4 -14 14 -23 26 -23 10 0 32 -7 47 -15 24 -12
28 -19 26 -52 -3 -51 -3 -50 -21 -57 -10 -4 -22 1 -30 11 -12 16 -15 16 -24 3
-5 -8 -10 -23 -10 -32 0 -9 -4 -20 -10 -23 -5 -3 -10 1 -10 10 0 9 -18 24 -44
35 -24 10 -46 24 -49 32 -4 10 -6 9 -6 -2 -1 -9 13 -32 30 -53 17 -21 30 -40
27 -42 -2 -2 -25 -7 -51 -10 -33 -5 -47 -3 -47 5 0 8 -10 10 -26 7 -21 -4 -25
-1 -22 17 2 16 9 21 28 19 24 -2 23 -1 -5 12 -16 8 -44 14 -62 15 -31 0 -56
16 -66 42 -4 10 -7 10 -15 0 -8 -12 -13 -12 -31 0 -28 17 -55 1 -59 -36 -5
-37 -28 -43 -58 -16 -29 28 -32 54 -5 45 23 -7 31 26 31 136 0 44 4 79 9 79 5
0 12 -39 16 -86 6 -79 8 -84 22 -65 8 12 30 24 52 27 l39 6 6 62 c4 33 6 82 6
109 -1 44 0 47 25 47 17 0 25 5 23 13 -3 7 -43 16 -109 24 -57 6 -171 19 -254
29 -82 9 -215 18 -295 20 -131 2 -137 1 -60 -6 47 -5 112 -13 145 -17 l60 -8
3 -180 c3 -186 -1 -225 -19 -192 -7 12 -22 17 -50 17 -33 0 -42 -4 -46 -21 -4
-12 -11 -18 -20 -15 -8 4 -25 9 -38 12 -13 3 -26 12 -29 20 -4 9 -21 14 -52
14 l-47 0 6 175 c6 165 5 175 -13 185 -23 13 -140 13 -160 0 -8 -5 -19 -5 -25
-1 -5 5 -140 10 -300 13 -159 2 -247 2 -194 1 l97 -4 6 -157 c8 -191 12 -222
31 -222 9 0 15 -10 15 -25 0 -29 0 -29 -36 -10 -16 8 -37 15 -46 15 -12 0 -18
8 -18 21 0 16 -5 20 -19 16 -13 -3 -21 1 -24 14 -4 14 -14 19 -41 19 -20 0
-36 -4 -36 -10 0 -16 -30 -12 -36 5 -3 8 -25 17 -49 21 -33 4 -45 11 -49 27
-10 36 -7 62 10 97 16 30 16 33 0 42 -11 6 -16 23 -16 58 0 49 -1 50 -30 50
-16 0 -44 9 -62 19 -29 19 -32 19 -44 3 -8 -10 -13 -12 -14 -5 0 15 -62 48
-107 58 -60 13 -36 42 30 36 15 -2 17 8 17 78 0 44 -3 82 -7 84 -13 8 -127
-16 -135 -27 -4 -6 -8 -21 -8 -32 0 -33 -28 -38 -42 -9 -6 14 -17 25 -25 25
-7 0 -13 11 -13 25 0 15 -5 25 -12 24 -35 -6 -48 13 -48 66 0 32 -5 57 -12 62
-7 4 -106 9 -220 11 l-208 3 0 -124 c0 -107 2 -126 18 -140 10 -10 22 -14 25
-10 4 3 7 -1 7 -10 0 -11 8 -17 24 -17 14 0 28 -4 31 -10 10 -16 21 -12 33 13
10 21 11 20 11 -10 1 -18 -3 -33 -9 -33 -5 0 -10 -7 -10 -16 0 -15 6 -12 77
46 18 15 43 12 43 -5 0 -9 11 -21 25 -27 14 -6 25 -14 26 -17 4 -34 12 -49 34
-67 28 -22 24 -34 -11 -34 -12 0 -29 -6 -36 -13 -35 -36 -145 -15 -135 24 5
18 -11 29 -43 29 -9 0 -23 7 -30 16 -18 20 -74 15 -78 -8 -2 -12 7 -20 36 -28
43 -11 58 -24 64 -55 4 -25 38 -33 38 -10 0 13 3 15 13 7 23 -18 101 -24 122
-8 30 22 76 -4 53 -31 -13 -17 -35 -17 -41 0 -3 7 -6 6 -6 -5 -1 -9 3 -19 8
-23 15 -9 -8 -65 -27 -65 -8 0 -24 8 -34 17 -19 17 -23 16 -79 -4 -51 -19 -61
-20 -66 -8 -5 15 -39 20 -67 9 -13 -5 -16 -22 -16 -86 l0 -80 228 3 227 4 0
-75 0 -75 -150 -6 c-82 -4 -260 -7 -395 -8 l-245 -1 -61 88 c-94 133 -344 462
-352 462 -4 0 -7 -124 -7 -276 l0 -277 -150 2 c-82 1 -153 5 -156 9 -3 4 -4
244 -1 535 l4 527 60 0 c51 0 59 2 54 16 -3 9 -6 22 -6 30 0 8 -9 14 -19 14
-10 0 -21 7 -25 15 -6 17 -39 20 -66 5 -15 -8 -24 -6 -40 10 -26 26 -30 25
-30 -3 0 -13 -5 -28 -10 -33 -6 -6 -12 -24 -13 -40 -2 -30 -3 -30 -57 -28 -53
2 -54 2 -10 -4 l45 -7 3 -320 c3 -418 -10 -501 -99 -608 -68 -82 -200 -135
-363 -144 -191 -11 -335 35 -428 136 -67 71 -85 108 -98 197 -11 79 -13 723
-2 741 4 6 21 13 37 15 27 3 30 7 33 43 5 62 22 67 22 7 l0 -52 65 0 65 0 0
45 c0 25 5 45 10 45 6 0 10 -23 10 -50 l0 -51 63 3 62 3 3 53 c4 66 22 59 22
-9 l0 -49 79 0 c71 0 80 2 86 20 3 11 13 20 21 20 8 0 22 9 31 20 30 35 63 21
63 -26 0 -10 -6 -13 -19 -9 -24 7 -51 -4 -45 -19 3 -7 -12 -21 -33 -32 -21
-10 -44 -27 -51 -37 -7 -9 -18 -15 -23 -12 -5 4 -9 1 -9 -4 0 -6 5 -11 10 -11
6 0 10 -7 10 -15 0 -13 -31 -21 -63 -16 -4 0 -7 -6 -7 -14 0 -10 10 -15 34
-15 27 0 35 -5 40 -24 7 -28 -2 -58 -14 -51 -18 11 -22 -19 -5 -31 17 -13 16
-14 -9 -23 -16 -7 -26 -18 -26 -31 0 -30 -23 -34 -67 -12 -37 19 -83 61 -70
63 4 1 13 2 20 3 6 0 12 8 12 16 0 8 -6 14 -12 13 -10 -2 -13 18 -13 77 0 65
3 80 15 80 9 0 18 7 21 15 4 10 13 13 25 10 11 -4 19 -2 19 4 0 6 -11 11 -24
11 -13 0 -38 3 -55 6 l-31 7 0 -326 c0 -359 6 -415 50 -458 75 -76 236 -57
304 34 20 27 21 43 26 390 3 199 8 367 13 374 4 6 24 10 50 7 23 -2 34 -1 25
2 -12 4 -18 16 -18 35 0 25 4 29 28 29 30 0 59 15 45 23 -13 8 -255 25 -538
37 -132 6 -276 13 -320 15 -44 3 -244 15 -445 26 -201 11 -376 22 -390 22
l-25 2 -2 -115 c-1 -63 -5 -125 -8 -137 -10 -40 -24 -25 -27 30 l-3 52 -120
-3 c-66 -2 -122 -5 -124 -8 -2 -2 48 -4 111 -4 l116 0 7 -102 c3 -57 5 -294 3
-528 l-3 -425 -134 0 -134 0 -154 255 c-84 140 -158 262 -163 270 -4 8 -11 12
-15 8 -4 -3 -6 -122 -6 -263 0 -141 -3 -263 -6 -271 -7 -19 -249 -21 -256 -1
-2 6 -2 245 1 530 5 575 11 536 -65 493 l-42 -24 -3 31 c-2 18 -7 32 -11 32
-5 0 -10 -54 -10 -120 l-2 -120 -188 -3 -187 -2 0 -89 0 -88 61 -7 c33 -4 114
-4 180 0 l119 7 0 -112 0 -111 -180 0 -181 0 3 -102 3 -103 190 0 190 0 3
-112 3 -113 -336 0 -335 0 0 535 0 535 33 1 32 1 -41 14 c-50 18 -94 6 -94
-25 0 -13 -15 -29 -44 -46 l-44 -26 -4 -219 c-3 -211 -4 -220 -25 -239 -12
-12 -27 -21 -32 -21 -9 0 -41 -50 -41 -64 0 -3 7 -2 17 1 11 4 14 3 9 -5 -4
-7 -16 -12 -27 -12 -10 0 -19 -4 -19 -9 0 -5 -13 -14 -30 -21 -16 -7 -28 -16
-25 -20 7 -12 -20 -19 -44 -13 -17 4 -19 8 -10 20 19 22 -5 41 -31 25 -11 -7
-20 -8 -20 -3 0 6 4 13 10 16 15 9 12 25 -5 25 -9 0 -18 -7 -21 -15 -7 -18
-44 -20 -44 -2 0 18 21 37 42 37 15 0 18 12 20 88 l3 87 32 16 c61 30 63 35
64 128 0 47 4 108 7 135 6 45 10 50 41 61 22 7 30 14 23 19 -6 4 -40 -5 -74
-19 -35 -14 -85 -35 -111 -46 l-48 -19 25 42 c33 56 79 105 112 120 24 11 28
10 46 -15 16 -22 23 -25 34 -16 8 6 21 8 31 4 28 -13 82 -15 89 -4 4 6 11 6
19 -1 11 -9 17 -5 29 17 39 70 56 80 108 58 13 -5 20 0 28 19 5 14 14 26 19
26 6 0 7 8 4 17 -11 27 -47 58 -64 55 -22 -4 -32 12 -33 52 -1 42 -31 45 -76
7 -39 -33 -37 -47 5 -31 34 13 38 10 29 -24 -6 -26 -37 -36 -49 -16 -12 19
-32 10 -28 -12 4 -30 -43 -69 -53 -44 -3 9 -17 16 -31 16 -34 0 -19 17 28 31
39 12 40 14 37 52 -3 46 -28 65 -28 22 0 -35 -24 -28 -28 9 -3 22 -6 25 -18
15 -17 -14 -18 -36 -2 -41 7 -3 2 -7 -10 -10 -12 -4 -22 -3 -22 1 0 4 -24 4
-54 1 -48 -5 -53 -4 -48 13 4 15 0 18 -19 16 -16 -2 -35 8 -58 29 -19 18 -44
32 -58 32 -23 0 -24 -2 -21 -57 l3 -58 -33 -3 c-17 -2 -32 -8 -32 -13 0 -12
-80 0 -99 15 -8 6 -21 22 -30 36 -15 24 -18 25 -69 15 -29 -6 -51 -13 -47 -16
3 -4 -8 -9 -26 -13 -25 -5 -30 -10 -26 -26 6 -21 -12 -27 -29 -10 -7 7 -20 6
-40 -5 -16 -8 -35 -15 -41 -15 -7 0 -13 -4 -13 -10 0 -5 -16 -10 -35 -10 -31
0 -35 -3 -35 -25 0 -26 -25 -45 -59 -45 -25 0 -36 -17 -22 -33 6 -8 6 -18 1
-27 -8 -13 -10 -12 -10 2 0 13 -5 15 -27 8 -16 -5 -41 -12 -58 -17 -22 -6 -31
-16 -35 -37 -6 -35 -30 -48 -30 -16 0 13 -5 20 -13 18 -19 -7 -20 -38 -1 -52
11 -8 14 -18 9 -27 -5 -8 3 -4 16 7 41 36 66 46 73 28 3 -8 10 -13 15 -10 5 3
14 -1 21 -9 9 -11 16 -12 30 -3 27 17 48 4 43 -26 -4 -21 -2 -24 16 -19 12 3
27 0 35 -6 12 -10 11 -22 -4 -79 -41 -149 -139 -477 -188 -632 -22 -69 -57
-181 -77 -250 -20 -69 -41 -138 -46 -154 -5 -16 -9 -33 -9 -37 0 -5 114 -9
253 -9 138 0 262 -3 274 -6 12 -3 23 -16 25 -28 2 -12 9 -20 18 -18 8 2 726 6
1595 8 2881 9 4607 21 4616 35 5 9 68 10 265 5 143 -4 277 -9 299 -11 22 -2
153 -7 290 -10 138 -3 405 -10 595 -16 363 -12 486 -7 1010 46 80 8 233 22
340 30 107 9 233 20 280 25 47 6 93 10 103 10 14 0 17 9 17 55 l0 54 -37 7
c-41 8 -77 36 -71 55 9 28 -52 64 -67 39 -9 -15 -25 -12 -25 5 0 18 -21 20
-38 3 -15 -15 -42 7 -42 33 0 15 8 19 40 19 22 0 40 5 40 10 0 6 -25 10 -55
10 -50 0 -56 2 -65 25 -10 26 -30 34 -30 13 0 -7 -5 -5 -11 5 -10 17 -13 17
-34 3 -29 -19 -35 -19 -59 -1 -18 13 -18 16 -4 32 11 12 17 50 22 120 5 87 4
103 -10 111 -10 6 -17 29 -21 71 -6 59 -4 64 32 116 20 30 58 73 83 96 26 22
57 50 70 61 12 11 22 30 22 43 0 12 7 28 15 35 19 16 20 -1 3 -33 -10 -19 -7
-18 21 5 30 26 61 28 61 6 0 -6 6 -5 15 2 21 17 87 -13 78 -36 -5 -14 -3 -15
15 -5 12 6 25 23 28 36 6 25 34 35 34 13 0 -7 9 7 20 31 17 37 23 42 43 37 12
-3 25 -6 30 -6 4 0 7 -8 7 -18 0 -11 9 -27 19 -36 18 -16 20 -16 40 0 15 13
19 25 14 43 -5 19 -3 23 9 18 12 -4 14 0 11 14 -4 15 0 19 21 19 15 0 26 6 26
14 0 7 7 19 15 26 12 10 10 15 -15 37 -36 30 -65 27 -65 -7 0 -29 -33 -41 -47
-16 -5 9 -16 16 -25 16 -9 0 -29 15 -44 33 -25 30 -28 31 -34 12 -13 -41 -23
-50 -58 -53 -24 -2 -41 -10 -47 -23 -13 -23 -46 -25 -54 -3 -4 9 -9 14 -12 12
-3 -3 -20 -2 -38 2 -30 6 -35 4 -45 -17 -8 -18 -16 -22 -35 -17 -25 6 -44 -10
-26 -21 15 -9 2 -25 -19 -25 -23 0 -51 -31 -51 -57 0 -16 5 -19 30 -15 51 7
39 -30 -22 -77 -29 -21 -71 -57 -93 -80 -21 -23 -43 -41 -48 -41 -6 0 -8 71
-5 178 4 140 8 184 22 210 9 17 21 32 27 32 5 0 13 11 18 23 7 17 25 29 65 41
50 16 56 21 56 46 0 24 5 29 34 34 18 4 41 4 50 0 11 -4 16 -1 16 11 0 13 7
16 28 13 15 -2 32 0 38 4 73 61 104 74 104 43 0 -17 16 -20 26 -4 3 6 17 8 30
5 13 -4 24 -2 24 3 0 5 8 11 18 13 20 6 28 54 11 74 -5 7 -9 18 -8 26 3 21
-12 48 -27 48 -8 0 -14 -9 -14 -19 0 -30 -29 -34 -40 -5 -9 24 -11 24 -34 9
-13 -9 -27 -23 -30 -32 -4 -8 -12 -13 -20 -10 -7 3 -20 -3 -29 -13 -25 -30
-100 -16 -96 18 4 29 -11 50 -31 45 -14 -4 -20 2 -25 26 -7 34 -18 44 -54 47
-33 4 -48 21 -33 36 7 7 12 22 12 35 0 17 7 23 34 28 33 7 34 8 25 38 -13 45
-12 47 17 47 22 0 25 4 22 32 -3 32 -21 48 -33 28z m-8762 -462 c-9 -15 -23
-8 -23 12 0 17 2 19 14 8 8 -7 12 -16 9 -20z m2487 -108 l0 -50 163 -1 c89 0
176 -1 192 -2 29 -2 30 0 33 46 4 58 22 53 22 -7 l0 -43 53 -7 c98 -11 96 -12
100 47 l3 52 2 -57 c1 -39 6 -58 15 -58 8 0 7 -4 -3 -10 -20 -13 -60 -13 -60
0 0 6 -4 10 -10 10 -5 0 -11 -50 -12 -117 l-3 -118 -190 -2 -190 -2 0 -88 0
-88 180 -5 180 -5 3 -107 3 -108 -186 0 -185 0 0 -95 c0 -93 1 -96 26 -105 15
-6 94 -7 200 -3 l175 6 -3 -114 -3 -114 -335 0 -335 0 -2 539 c-1 296 -5 541
-8 544 -11 12 -4 24 8 14 8 -7 18 -7 27 -2 8 6 39 10 68 10 l52 0 0 51 c0 31
4 48 10 44 6 -3 10 -28 10 -55z m-2615 -3 c5 -24 8 -27 20 -17 20 17 20 -2 0
-40 -21 -41 -32 -37 -39 15 -6 39 3 108 10 80 1 -5 5 -23 9 -38z m105 -10 c0
-7 -13 -26 -30 -42 -36 -34 -42 -13 -9 29 22 28 39 34 39 13z m-221 -51 l51
-55 0 -128 0 -128 -25 37 c-14 21 -34 42 -45 48 -24 13 -76 112 -88 168 -11
48 11 112 38 112 9 0 40 -24 69 -54z m45 32 c5 -9 7 -20 3 -24 -8 -8 -47 24
-47 38 0 15 32 5 44 -14z m291 12 c-3 -5 -18 -10 -33 -10 -24 0 -25 -1 -7 -14
17 -12 14 -19 -46 -112 -36 -54 -73 -118 -83 -141 -10 -23 -23 -40 -27 -37
-15 9 -10 176 5 203 25 44 127 120 164 120 20 1 31 -3 27 -9z m3720 -30 c0
-13 -6 -25 -12 -27 -9 -3 -13 6 -13 27 0 21 4 30 13 28 6 -3 12 -15 12 -28z
m-4210 -41 c11 -17 -1 -21 -15 -4 -8 9 -8 15 -2 15 6 0 14 -5 17 -11z m8897
-14 c9 -12 11 -287 2 -309 -3 -9 -10 -16 -14 -16 -4 0 -42 45 -84 101 -97 129
-121 209 -64 209 13 0 31 7 41 15 21 15 108 16 119 0z m82 -10 c-15 -23 -44
-35 -44 -18 0 12 33 43 47 43 11 0 10 -5 -3 -25z m-8996 -22 c11 -10 37 -49
57 -88 21 -38 51 -85 67 -104 16 -18 26 -36 23 -39 -3 -4 -44 33 -90 80 -66
67 -87 96 -94 127 -10 46 2 54 37 24z m-48 -55 c0 -13 -17 -9 -30 7 -6 8 -8
20 -4 26 5 9 11 7 21 -6 7 -11 13 -22 13 -27z m8746 -5 c10 -10 12 -19 6 -21
-16 -5 -53 18 -47 29 9 13 21 11 41 -8z m-8638 -152 c116 -124 132 -156 132
-265 0 -39 4 -77 9 -85 11 -17 41 -7 41 14 0 18 11 19 45 3 19 -8 24 -17 20
-32 -5 -19 -5 -19 5 -3 6 9 20 17 30 17 11 0 20 5 20 11 0 5 5 7 10 4 15 -9
12 -41 -5 -55 -21 -17 -19 -29 4 -23 15 4 18 0 14 -21 -5 -23 -2 -26 21 -26
18 0 26 -5 26 -17 0 -15 -2 -16 -10 -3 -6 10 -10 11 -10 3 0 -8 -13 -13 -30
-13 -16 0 -30 -4 -30 -10 0 -5 -9 -10 -20 -10 -13 0 -20 -7 -20 -20 0 -17 -4
-19 -27 -14 -31 8 -67 40 -59 53 3 5 -9 11 -27 15 -19 4 -33 2 -35 -4 -2 -5
-12 -10 -22 -10 -20 0 -36 -17 -26 -28 4 -3 16 -1 26 6 11 7 27 12 36 12 13 0
12 -3 -5 -17 -13 -11 -22 -31 -24 -50 -2 -39 -12 -43 -21 -8 -8 32 -30 32 -68
0 -16 -14 -41 -25 -55 -25 -34 0 -25 -24 11 -28 19 -3 25 -7 18 -15 -5 -7 -12
-24 -16 -39 -5 -23 -12 -28 -35 -28 -16 0 -31 -6 -35 -15 -3 -8 -15 -15 -27
-15 -21 0 -22 1 -4 20 21 24 19 28 -22 36 -25 5 -33 2 -42 -13 -8 -17 -17 -19
-48 -14 -36 6 -38 8 -35 40 6 57 26 77 71 75 l39 -2 8 76 c4 42 4 168 2 281
-5 179 -8 205 -23 213 -13 8 -15 18 -10 45 3 20 2 40 -5 47 -7 10 -6 17 5 26
8 7 15 20 15 30 0 9 3 19 6 23 16 15 87 -40 182 -142z m9248 112 c-10 -10 -19
5 -10 18 6 11 8 11 12 0 2 -7 1 -15 -2 -18z m-8838 -140 l-3 -117 -45 -11
c-111 -28 -110 -29 -110 11 0 20 17 74 37 121 30 70 42 88 67 99 57 24 57 24
54 -103z m3413 -163 c8 13 11 13 20 -2 5 -10 19 -18 30 -18 16 0 18 -5 13 -25
-6 -24 -4 -25 20 -19 37 9 34 -14 -4 -27 -16 -6 -30 -13 -30 -16 0 -11 28 -31
36 -25 5 4 0 -3 -10 -15 -10 -12 -16 -29 -13 -38 4 -8 2 -15 -2 -15 -5 0 -11
5 -13 11 -2 5 -16 12 -31 13 -38 4 -46 15 -23 32 16 11 17 17 8 26 -10 10 -14
8 -18 -10 -11 -41 -21 -22 -28 53 -8 84 -1 109 21 79 12 -16 15 -17 24 -4z
m3255 -307 c5 -119 4 -123 -15 -123 -20 0 -21 6 -21 93 0 52 3 136 7 188 l8
94 8 -65 c5 -36 11 -120 13 -187z m206 5 c3 -110 2 -117 -17 -120 -19 -4 -20
0 -17 106 1 61 5 122 8 136 11 49 22 -3 26 -122z m638 -19 c0 -59 -4 -99 -10
-99 -6 0 -10 42 -10 106 0 67 4 103 10 99 6 -3 10 -50 10 -106z m979 -93 c9
-11 8 -15 -5 -20 -20 -8 -34 1 -34 20 0 18 24 18 39 0z m-8321 -42 l113 -6 -3
-82 -3 -81 -255 0 -255 0 -7 60 c-4 33 -9 75 -12 94 l-5 33 157 -6 c86 -4 208
-9 270 -12z m-559 -35 c-16 -23 -24 -28 -30 -17 -6 9 -2 19 12 31 33 27 43 20
18 -14z m7255 -20 c-24 -26 -44 -24 -44 5 0 27 26 39 48 23 10 -8 9 -14 -4
-28z m54 19 c7 -7 8 -17 1 -30 -15 -27 -29 -22 -29 12 0 32 9 37 28 18z m212
2 c0 -5 -7 -10 -16 -10 -8 0 -12 5 -9 10 3 6 10 10 16 10 5 0 9 -4 9 -10z
m123 -24 c20 -2 46 -11 57 -21 20 -19 20 -19 -10 -38 -28 -18 -32 -18 -56 -2
-14 9 -28 23 -31 31 -8 21 -21 17 -25 -8 -4 -32 -43 -37 -51 -7 -3 12 -1 31 4
42 9 15 17 18 42 12 18 -4 49 -8 70 -9z m-493 -16 c0 -5 -4 -10 -10 -10 -5 0
-10 5 -10 10 0 6 5 10 10 10 6 0 10 -4 10 -10z m1464 -9 c10 -15 -24 -34 -59
-33 -19 1 -37 -3 -40 -8 -9 -14 -35 -12 -35 3 0 20 39 40 55 27 10 -8 17 -7
27 4 14 17 44 21 52 7z m104 -26 c19 -41 15 -48 -20 -41 -46 9 -67 50 -30 59
33 9 39 7 50 -18z m-1256 -7 c-7 -7 -12 -8 -12 -2 0 14 12 26 19 19 2 -3 -1
-11 -7 -17z m-1267 1 c9 -14 -4 -27 -13 -13 -4 6 -14 14 -22 17 -10 4 -8 6 7
6 12 1 25 -4 28 -10z m1705 -4 c0 -8 -4 -15 -9 -15 -13 0 -22 16 -14 24 11 11
23 6 23 -9z m65 5 c3 -5 -1 -10 -9 -10 -9 0 -16 5 -16 10 0 6 4 10 9 10 6 0
13 -4 16 -10z m867 -14 c22 -50 -14 -74 -52 -36 -16 16 -18 25 -10 40 15 28
48 25 62 -4z m-2262 6 c0 -13 -12 -22 -22 -16 -10 6 -1 24 13 24 5 0 9 -4 9
-8z m60 -21 c0 -4 -11 -6 -25 -3 -14 2 -25 6 -25 8 0 2 11 4 25 4 14 0 25 -4
25 -9z m1056 -28 c-10 -10 -19 5 -10 18 6 11 8 11 12 0 2 -7 1 -15 -2 -18z
m69 7 c-3 -5 -10 -10 -16 -10 -5 0 -9 5 -9 10 0 6 7 10 16 10 8 0 12 -4 9 -10z
m73 -12 c-18 -27 -38 -35 -38 -15 0 8 10 19 23 25 31 15 31 15 15 -10z m-212
-26 c-18 -16 -18 -16 -6 6 6 13 14 21 18 18 3 -4 -2 -14 -12 -24z m313 24
c-12 -10 -60 -16 -54 -6 3 5 18 10 32 10 15 0 24 -2 22 -4z m-1762 -93 c2 -61
0 -73 -15 -77 -34 -10 -596 -25 -1157 -31 -313 -3 -797 -7 -1075 -10 -667 -7
-3871 -8 -3877 -1 -3 2 -7 32 -10 65 l-6 61 -47 6 c-45 6 -47 7 -31 23 13 14
21 15 46 6 22 -9 182 -11 600 -9 314 2 1335 4 2270 4 1559 0 2505 10 2970 29
99 5 214 8 255 7 l75 -1 2 -72z m-6312 45 c5 4 5 2 2 -5 -4 -6 -1 -14 5 -16 7
-3 3 -6 -9 -6 -13 -1 -23 1 -23 3 0 2 -3 13 -7 23 -6 15 -4 16 9 6 8 -7 19 -9
23 -5z m7015 -48 c0 -9 212 -7 227 3 6 4 14 3 17 -2 3 -4 53 -9 111 -9 58 -1
109 -3 113 -6 4 -2 39 -1 77 4 43 5 74 5 79 -1 13 -12 63 -12 71 1 5 8 11 7
21 -1 11 -9 17 -9 29 1 12 10 15 10 15 -4 0 -20 9 -20 31 0 14 13 22 13 39 4
21 -11 502 -9 875 4 127 5 128 5 35 -4 -52 -5 -133 -14 -180 -20 -169 -20
-399 -32 -620 -31 -215 1 -858 16 -1080 26 -58 3 -111 5 -117 5 -7 0 -13 6
-13 13 0 9 23 12 85 11 47 -1 88 3 91 7 6 10 94 9 94 -1z m-430 -4 c0 -2 -7
-6 -15 -10 -8 -3 -15 -1 -15 4 0 6 7 10 15 10 8 0 15 -2 15 -4z m113 -6 c7 0
6 -4 -3 -10 -19 -12 -70 -13 -70 -1 0 11 30 20 48 15 8 -2 19 -4 25 -4z"/>
<path d="M801 964 c-29 -8 -57 -17 -62 -20 -10 -6 -12 -127 -3 -162 8 -28 30
-23 27 6 -2 15 7 24 37 36 22 9 49 16 60 16 18 0 20 7 20 70 0 78 3 76 -79 54z"/>
<path d="M1076 763 c-12 -12 -6 -33 9 -33 8 0 15 6 15 14 0 17 -14 28 -24 19z"/>
<path d="M1003 743 c9 -9 19 -14 23 -11 10 10 -6 28 -24 28 -15 0 -15 -1 1
-17z"/>
<path d="M6580 1974 l0 -143 33 -5 c17 -3 76 -8 130 -12 l97 -6 0 109 c0 59 3
124 6 145 l6 36 -73 6 c-41 3 -102 7 -136 9 l-63 3 0 -142z"/>
<path d="M7238 2102 l-68 -15 0 -65 0 -65 43 7 c23 4 59 11 80 17 l37 10 0 64
c0 46 -4 65 -12 64 -7 -1 -43 -8 -80 -17z"/>
<path d="M8662 2048 l3 -73 50 -7 c27 -4 60 -10 72 -13 22 -5 23 -3 23 68 l0
74 -57 12 c-97 19 -94 21 -91 -61z"/>
<path d="M1942 2070 c0 -14 2 -19 5 -12 2 6 2 18 0 25 -3 6 -5 1 -5 -13z"/>
<path d="M8843 2075 c-6 -17 1 -112 9 -120 8 -8 142 -34 150 -29 4 3 8 34 8
69 l0 63 -69 16 c-86 20 -90 20 -98 1z"/>
<path d="M7053 2068 l-53 -10 0 -64 0 -64 43 6 c93 15 92 14 95 82 3 70 8 67
-85 50z"/>
<path d="M2499 2017 c-2 -35 0 -57 6 -57 6 0 9 18 7 43 -5 71 -8 75 -13 14z"/>
<path d="M1906 1995 c-3 -9 0 -15 9 -15 8 0 15 7 15 15 0 8 -4 15 -9 15 -5 0
-11 -7 -15 -15z"/>
<path d="M2660 1964 c0 -8 5 -12 10 -9 6 3 10 10 10 16 0 5 -4 9 -10 9 -5 0
-10 -7 -10 -16z"/>
<path d="M2921 1966 c-8 -9 -11 -19 -7 -23 9 -9 29 13 24 27 -2 8 -8 7 -17 -4z"/>
<path d="M7740 1904 l0 -66 31 6 c17 3 58 6 90 6 l59 0 0 55 c0 66 19 75 21
10 2 -67 3 -70 17 -69 6 1 50 2 97 3 l85 1 0 60 0 60 -200 0 -200 0 0 -66z"/>
<path d="M8180 1910 l0 -60 80 0 80 0 0 60 0 60 -80 0 -80 0 0 -60z"/>
<path d="M1133 1936 c-29 -30 -31 -66 -4 -66 10 0 40 -20 67 -44 39 -36 58
-46 98 -51 40 -6 51 -4 58 9 6 11 16 15 28 11 10 -3 27 0 38 6 16 10 27 8 67
-15 38 -23 49 -26 56 -15 13 21 11 25 -19 58 -24 27 -35 31 -87 33 -71 4 -83
24 -40 64 31 29 27 42 -7 23 -23 -13 -50 -19 -98 -20 -13 -1 -29 -7 -35 -15
-16 -23 -88 -5 -95 23 l-5 22 -22 -23z"/>
<path d="M7499 1956 c-2 -2 -2 -32 -1 -67 l4 -62 90 7 c49 3 94 8 99 12 5 3 9
30 9 60 l0 54 -98 0 c-54 0 -101 -2 -103 -4z"/>
<path d="M8490 1896 c0 -36 4 -67 9 -70 5 -4 37 -9 70 -12 l61 -7 0 57 c0 31
1 59 3 63 2 8 -31 17 -96 27 l-47 7 0 -65z"/>
<path d="M1070 1941 c0 -5 7 -11 15 -15 9 -3 15 0 15 9 0 8 -7 15 -15 15 -8 0
-15 -4 -15 -9z"/>
<path d="M7240 1916 l-65 -11 0 -60 c0 -58 1 -60 25 -56 14 2 47 6 73 10 l48
6 3 63 c1 39 -1 62 -8 61 -6 -1 -40 -7 -76 -13z"/>
<path d="M8667 1923 c-6 -6 -10 -122 -4 -123 1 -1 35 -7 75 -14 l72 -12 0 67
0 67 -52 7 c-29 3 -60 8 -69 11 -8 2 -18 1 -22 -3z"/>
<path d="M8843 1885 c-2 -7 -3 -37 -1 -66 l3 -54 76 -5 77 -5 5 55 c3 30 4 56
2 59 -3 2 -39 9 -81 16 -59 9 -77 9 -81 0z"/>
<path d="M7065 1883 c-70 -14 -65 -9 -65 -74 0 -53 2 -60 18 -55 9 3 38 8 65
12 l47 6 0 43 c0 24 3 50 6 59 5 12 0 16 -22 15 -16 -1 -38 -3 -49 -6z"/>
<path d="M9940 1866 c0 -2 7 -6 15 -10 8 -3 15 -1 15 4 0 6 -7 10 -15 10 -8 0
-15 -2 -15 -4z"/>
<path d="M1791 1836 c-14 -17 -11 -68 4 -73 6 -2 10 16 10 42 0 25 -1 45 -1
45 -1 0 -7 -6 -13 -14z"/>
<path d="M2460 1795 c0 -35 4 -54 10 -50 6 3 10 26 10 50 0 24 -4 47 -10 50
-6 4 -10 -15 -10 -50z"/>
<path d="M2310 1793 c1 -42 2 -46 14 -30 7 9 18 17 24 17 6 0 12 6 15 13 5 16
-3 47 -13 47 -5 0 -6 -9 -3 -20 3 -11 0 -20 -6 -20 -6 0 -11 9 -11 20 0 11 -4
20 -10 20 -5 0 -10 -21 -10 -47z"/>
<path d="M2890 1826 c0 -8 -9 -20 -21 -26 -31 -17 -22 -64 14 -68 26 -3 27 -2
27 47 0 27 -4 53 -10 56 -5 3 -10 -1 -10 -9z m0 -61 c0 -8 -4 -15 -10 -15 -5
0 -10 7 -10 15 0 8 5 15 10 15 6 0 10 -7 10 -15z"/>
<path d="M1890 1801 c0 -12 -7 -21 -15 -21 -8 0 -15 -4 -15 -10 0 -5 11 -10
25 -10 20 0 25 5 25 24 0 14 -4 28 -10 31 -5 3 -10 -3 -10 -14z"/>
<path d="M1930 1790 c0 -16 4 -30 9 -30 5 0 11 14 13 30 3 20 0 30 -9 30 -8 0
-13 -12 -13 -30z"/>
<path d="M1977 1813 c-11 -10 -8 -53 3 -53 6 0 10 14 10 30 0 31 -2 35 -13 23z"/>
<path d="M2004 1791 c2 -41 16 -52 16 -13 0 17 -4 33 -9 36 -5 3 -8 -7 -7 -23z"/>
<path d="M2040 1766 c0 -31 5 -56 10 -56 6 0 10 7 10 15 0 8 9 19 21 25 31 17
22 64 -13 68 -28 3 -28 2 -28 -52z m50 12 c0 -5 -7 -8 -15 -8 -15 0 -20 21 -8
33 7 7 23 -11 23 -25z"/>
<path d="M2122 1788 c2 -28 8 -34 31 -36 23 -3 27 0 27 22 0 14 -4 28 -10 31
-5 3 -10 -3 -10 -14 0 -12 -4 -21 -10 -21 -5 0 -10 11 -10 25 0 14 -5 25 -11
25 -6 0 -9 -14 -7 -32z"/>
<path d="M7950 1816 c-3 -2 -4 -43 -2 -90 l3 -86 95 0 95 0 -3 88 -3 87 -90 3
c-50 1 -93 1 -95 -2z"/>
<path d="M8180 1730 l0 -90 80 0 80 0 0 84 0 83 -46 7 c-26 3 -62 6 -80 6
l-34 0 0 -90z"/>
<path d="M2200 1797 c0 -8 5 -19 10 -22 6 -4 8 -11 5 -16 -4 -5 1 -9 9 -9 22
0 20 17 -4 42 -16 18 -20 19 -20 5z"/>
<path d="M2406 1795 c19 -14 18 -14 -3 -15 -14 0 -23 -6 -23 -15 0 -8 5 -15
10 -15 6 0 10 5 10 10 0 6 5 10 11 10 5 0 7 -4 4 -10 -3 -5 1 -10 9 -10 9 0
16 5 16 11 0 21 -21 49 -37 49 -14 0 -14 -2 3 -15z"/>
<path d="M7568 1803 l-68 -4 0 -85 0 -85 98 3 97 3 0 85 0 85 -30 1 c-16 0
-60 -1 -97 -3z"/>
<path d="M7740 1727 c0 -46 2 -86 4 -88 2 -2 41 -3 85 -1 l81 4 0 84 0 84 -85
0 -85 0 0 -83z"/>
<path d="M2501 1773 c0 -25 1 -26 9 -8 12 27 12 35 0 35 -5 0 -10 -12 -9 -27z"/>
<path d="M2540 1775 c0 -15 4 -24 10 -20 6 3 10 12 10 20 0 8 -4 17 -10 20 -6
4 -10 -5 -10 -20z"/>
<path d="M2576 1783 c-4 -10 2 -25 14 -38 16 -17 18 -24 8 -28 -7 -3 -3 -6 10
-6 19 -1 22 4 22 38 0 22 -4 43 -10 46 -6 4 -10 -5 -10 -20 0 -16 -4 -24 -11
-19 -6 3 -9 15 -6 25 6 23 -8 25 -17 2z"/>
<path d="M2650 1766 c0 -20 2 -36 4 -36 8 0 12 61 4 66 -4 3 -8 -11 -8 -30z"/>
<path d="M2730 1786 c0 -8 -7 -16 -15 -20 -23 -8 -18 -23 10 -28 30 -6 39 5
31 38 -7 26 -26 33 -26 10z"/>
<path d="M2780 1770 c0 -16 5 -30 10 -30 6 0 10 6 9 13 -4 29 4 39 10 12 6
-31 28 -37 23 -7 -6 34 -12 42 -32 42 -16 0 -20 -7 -20 -30z"/>
<path d="M2923 1784 c-7 -19 7 -46 27 -52 8 -3 10 0 6 7 -4 7 -2 18 4 26 6 8
9 19 5 25 -10 16 -35 12 -42 -6z"/>
<path d="M8490 1707 l0 -86 33 -5 c17 -3 50 -7 72 -8 l40 -3 3 70 c4 91 -5
102 -85 111 l-63 7 0 -86z"/>
<path d="M7246 1760 c-80 -14 -77 -11 -74 -97 l3 -78 40 3 c22 2 56 7 75 11
l35 7 3 82 c3 92 9 87 -82 72z"/>
<path d="M8665 1762 c-8 -8 -6 -160 3 -165 4 -3 37 -8 75 -12 l67 -7 0 86 c0
75 -2 86 -17 87 -10 0 -42 4 -71 8 -29 4 -54 5 -57 3z"/>
<path d="M7105 1735 c-5 -2 -31 -6 -57 -10 l-48 -6 0 -80 0 -80 63 7 c66 7 78
15 70 45 -5 17 -12 19 -53 13 l-48 -6 -4 37 c-4 32 -1 38 20 46 13 5 37 9 53
9 19 0 29 5 29 15 0 15 -5 17 -25 10z"/>
<path d="M8845 1677 c-10 -81 -5 -101 27 -105 22 -3 27 0 22 12 -3 9 5 25 20
39 31 29 33 41 6 32 -15 -5 -20 -2 -20 13 0 11 7 25 15 32 20 16 3 30 -37 30
-25 0 -27 -4 -33 -53z"/>
<path d="M925 1680 c4 -6 11 -8 16 -5 14 9 11 15 -7 15 -8 0 -12 -5 -9 -10z"/>
<path d="M595 1630 c-3 -5 -1 -10 4 -10 6 0 11 5 11 10 0 6 -2 10 -4 10 -3 0
-8 -4 -11 -10z"/>
<path d="M5480 1601 c0 -6 5 -13 11 -17 6 -3 8 -16 5 -29 -5 -18 -2 -22 17
-20 12 1 24 3 26 4 3 0 -5 10 -17 21 -12 12 -22 27 -22 35 0 8 -4 15 -10 15
-5 0 -10 -4 -10 -9z"/>
<path d="M399 1584 c-10 -13 -10 -17 2 -25 19 -12 29 -11 29 1 0 6 12 10 26
10 22 0 25 2 14 15 -16 20 -54 19 -71 -1z"/>
<path d="M7787 1593 l-47 -4 1 -122 c0 -67 3 -130 6 -139 4 -16 22 -18 199
-18 l195 0 -3 143 -3 142 -150 1 c-82 0 -171 -1 -198 -3z"/>
<path d="M7507 1584 c-4 -4 -7 -70 -7 -146 l0 -138 88 0 c48 0 93 4 100 8 9 7
12 42 10 143 l-3 134 -90 3 c-50 1 -94 0 -98 -4z"/>
<path d="M8180 1450 l0 -140 85 0 85 0 0 140 0 140 -85 0 -85 0 0 -140z"/>
<path d="M8490 1448 c0 -92 4 -139 13 -150 7 -9 35 -18 68 -22 l56 -6 6 56 c6
60 -2 233 -12 238 -3 2 -34 7 -68 11 l-63 7 0 -134z"/>
<path d="M7235 1556 l-60 -12 -3 -143 -3 -144 58 7 c113 13 103 -2 103 162 0
163 10 150 -95 130z"/>
<path d="M8667 1554 c-9 -10 -9 -282 1 -287 4 -3 39 -7 77 -8 l70 -4 3 50 c2
28 1 91 -3 142 -5 74 -10 93 -23 97 -37 10 -118 17 -125 10z"/>
<path d="M5620 1536 c0 -8 5 -18 10 -21 6 -4 10 -14 8 -23 -3 -24 13 -50 110
-175 48 -62 109 -141 135 -177 26 -36 78 -105 115 -154 l67 -90 5 295 c3 162
3 297 0 301 -3 4 -63 11 -134 14 -97 6 -127 4 -122 -4 4 -7 16 -12 27 -12 11
0 29 -5 40 -10 19 -11 19 -11 -1 -50 -18 -35 -18 -40 -4 -48 15 -8 15 -10 -1
-16 -9 -3 -21 -4 -26 0 -5 3 -9 1 -9 -4 0 -5 9 -12 20 -15 36 -9 23 -29 -17
-25 -22 2 -37 -1 -35 -7 10 -39 15 -46 30 -40 9 3 13 3 10 -1 -4 -3 -1 -13 7
-21 16 -15 20 -53 7 -53 -5 0 -15 11 -22 25 -7 14 -17 25 -20 25 -10 0 -110
137 -110 150 0 6 10 10 23 10 21 1 20 2 -5 16 -16 8 -28 22 -28 30 0 18 -57
94 -71 94 -5 0 -9 -6 -9 -14z"/>
<path d="M7063 1527 l-63 -10 0 -142 0 -142 61 9 c33 4 65 10 70 14 11 6 12
271 2 276 -5 2 -36 0 -70 -5z"/>
<path d="M8850 1385 c0 -138 1 -145 20 -145 14 0 20 7 20 23 0 29 36 51 78 48
28 -2 32 1 32 21 0 24 -34 56 -73 71 -13 5 -16 13 -12 27 5 16 2 20 -14 20
-24 0 -45 34 -38 61 3 10 1 19 -4 19 -5 0 -9 -65 -9 -145z"/>
<path d="M10243 1495 c-8 -22 6 -33 17 -15 13 20 12 30 0 30 -6 0 -13 -7 -17
-15z"/>
<path d="M5740 1485 c0 -8 5 -15 10 -15 6 0 10 7 10 15 0 8 -4 15 -10 15 -5 0
-10 -7 -10 -15z"/>
<path d="M6400 1431 c0 -63 15 -73 108 -71 37 1 138 -1 225 -5 l157 -8 0 56
c0 31 -3 58 -7 60 -5 3 -115 8 -245 12 l-238 7 0 -51z"/>
<path d="M3016 1463 c-4 -5 -29 -20 -54 -34 -45 -24 -47 -28 -50 -72 -2 -26
-7 -47 -13 -47 -5 0 -7 -10 -4 -22 3 -13 -1 -32 -9 -43 -14 -20 -14 -20 -37 0
-12 11 -51 64 -86 118 -36 55 -67 96 -70 93 -3 -3 3 -19 13 -35 85 -137 221
-364 268 -448 32 -57 62 -103 67 -103 5 0 9 130 9 300 0 243 -3 300 -13 300
-8 0 -17 -3 -21 -7z"/>
<path d="M5796 1391 c-3 -5 1 -12 10 -15 20 -8 29 -1 19 13 -8 13 -22 14 -29
2z"/>
<path d="M7588 1252 l-88 -3 0 -90 0 -90 98 3 97 3 0 89 c0 52 -4 90 -10 91
-5 0 -49 -1 -97 -3z"/>
<path d="M7744 1234 c-6 -23 1 -155 8 -158 2 -1 90 0 196 2 l192 3 0 89 0 90
-195 0 -195 0 -6 -26z"/>
<path d="M8180 1171 l0 -89 67 -8 c40 -4 73 -3 82 3 21 13 29 162 9 174 -7 5
-46 9 -85 9 l-73 0 0 -89z"/>
<path d="M9110 1250 c0 -5 5 -10 10 -10 6 0 10 5 10 10 0 6 -4 10 -10 10 -5 0
-10 -4 -10 -10z"/>
<path d="M8500 1157 l0 -94 46 -7 c93 -12 98 -7 87 105 l-6 67 -48 6 c-27 4
-56 9 -64 12 -13 5 -15 -9 -15 -89z"/>
<path d="M7215 1211 l-40 -6 -3 -89 -3 -88 48 6 c26 4 63 10 81 13 l32 5 0 84
0 84 -37 -1 c-21 -1 -56 -5 -78 -8z"/>
<path d="M8665 1210 c-4 -6 -4 -47 0 -91 6 -63 10 -79 24 -80 9 0 40 -4 69 -8
61 -9 75 3 48 40 -14 20 -14 25 -1 39 17 19 10 86 -10 93 -34 14 -123 18 -130
7z"/>
<path d="M8850 1165 c0 -24 1 -24 20 -8 14 13 16 19 7 25 -20 13 -27 9 -27
-17z"/>
<path d="M7868 973 c34 -2 90 -2 125 0 34 2 6 3 -63 3 -69 0 -97 -1 -62 -3z"/>
<path d="M8168 973 c6 -2 18 -2 25 0 6 3 1 5 -13 5 -14 0 -19 -2 -12 -5z"/>
<path d="M7403 953 c9 -2 25 -2 35 0 9 3 1 5 -18 5 -19 0 -27 -2 -17 -5z"/>
</g>
</svg>
